<svg xmlns="http://www.w3.org/2000/svg" width="48" height="46" fill="none" viewBox="0 0 48 46"><path fill="#863bff" d="M25.946 44.938c-.664.845-2.021.375-2.021-.698V33.937a2.26 2.26 0 0 0-2.262-2.262H10.287c-.92 0-1.456-1.04-.92-1.788l7.48-10.471c1.07-1.497 0-3.578-1.842-3.578H1.237c-.92 0-1.456-1.04-.92-1.788L10.013.474c.214-.297.556-.474.92-.474h28.894c.92 0 1.456 1.04.92 1.788l-7.48 10.471c-1.07 1.498 0 3.579 1.842 3.579h11.377c.943 0 1.473 1.088.89 1.83L25.947 44.94z" style="fill:#863bff;fill:color(display-p3 .5252 .23 1);fill-opacity:1"/><mask id="a" width="48" height="46" x="0" y="0" maskUnits="userSpaceOnUse" style="mask-type:alpha"><path fill="#000" d="M25.842 44.938c-.664.844-2.021.375-2.021-.698V33.937a2.26 2.26 0 0 0-2.262-2.262H10.183c-.92 0-1.456-1.04-.92-1.788l7.48-10.471c1.07-1.498 0-3.579-1.842-3.579H1.133c-.92 0-1.456-1.04-.92-1.787L9.91.473c.214-.297.556-.474.92-.474h28.894c.92 0 1.456 1.04.92 1.788l-7.48 10.471c-1.07 1.498 0 3.578 1.842 3.578h11.377c.943 0 1.473 1.088.89 1.832L25.843 44.94z" style="fill:#000;fill-opacity:1"/></mask><g mask="url(#a)"><g filter="url(#b)"><ellipse cx="5.508" cy="14.704" fill="#ede6ff" rx="5.508" ry="14.704" style="fill:#ede6ff;fill:color(display-p3 .9275 .9033 1);fill-opacity:1" transform="matrix(.00324 1 1 -.00324 -4.47 31.516)"/></g><g filter="url(#c)"><ellipse cx="10.399" cy="29.851" fill="#ede6ff" rx="10.399" ry="29.851" style="fill:#ede6ff;fill:color(display-p3 .9275 .9033 1);fill-opacity:1" transform="matrix(.00324 1 1 -.00324 -39.328 7.883)"/></g><g filter="url(#d)"><ellipse cx="5.508" cy="30.487" fill="#7e14ff" rx="5.508" ry="30.487" style="fill:#7e14ff;fill:color(display-p3 .4922 .0767 1);fill-opacity:1" transform="rotate(89.814 -25.913 -14.639)scale(1 -1)"/></g><g filter="url(#e)"><ellipse cx="5.508" cy="30.599" fill="#7e14ff" rx="5.508" ry="30.599" style="fill:#7e14ff;fill:color(display-p3 .4922 .0767 1);fill-opacity:1" transform="rotate(89.814 -32.644 -3.334)scale(1 -1)"/></g><g filter="url(#f)"><ellipse cx="5.508" cy="30.599" fill="#7e14ff" rx="5.508" ry="30.599" style="fill:#7e14ff;fill:color(display-p3 .4922 .0767 1);fill-opacity:1" transform="matrix(.00324 1 1 -.00324 -34.34 30.47)"/></g><g filter="url(#g)"><ellipse cx="14.072" cy="22.078" fill="#ede6ff" rx="14.072" ry="22.078" style="fill:#ede6ff;fill:color(display-p3 .9275 .9033 1);fill-opacity:1" transform="rotate(93.35 24.506 48.493)scale(-1 1)"/></g><g filter="url(#h)"><ellipse cx="3.47" cy="21.501" fill="#7e14ff" rx="3.47" ry="21.501" style="fill:#7e14ff;fill:color(display-p3 .4922 .0767 1);fill-opacity:1" transform="rotate(89.009 28.708 47.59)scale(-1 1)"/></g><g filter="url(#i)"><ellipse cx="3.47" cy="21.501" fill="#7e14ff" rx="3.47" ry="21.501" style="fill:#7e14ff;fill:color(display-p3 .4922 .0767 1);fill-opacity:1" transform="rotate(89.009 28.708 47.59)scale(-1 1)"/></g><g filter="url(#j)"><ellipse cx=".387" cy="8.972" fill="#7e14ff" rx="4.407" ry="29.108" style="fill:#7e14ff;fill:color(display-p3 .4922 .0767 1);fill-opacity:1" transform="rotate(39.51 .387 8.972)"/></g><g filter="url(#k)"><ellipse cx="47.523" cy="-6.092" fill="#7e14ff" rx="4.407" ry="29.108" style="fill:#7e14ff;fill:color(display-p3 .4922 .0767 1);fill-opacity:1" transform="rotate(37.892 47.523 -6.092)"/></g><g filter="url(#l)"><ellipse cx="41.412" cy="6.333" fill="#47bfff" rx="5.971" ry="9.665" style="fill:#47bfff;fill:color(display-p3 .2799 .748 1);fill-opacity:1" transform="rotate(37.892 41.412 6.333)"/></g><g filter="url(#m)"><ellipse cx="-1.879" cy="38.332" fill="#7e14ff" rx="4.407" ry="29.108" style="fill:#7e14ff;fill:color(display-p3 .4922 .0767 1);fill-opacity:1" transform="rotate(37.892 -1.88 38.332)"/></g><g filter="url(#n)"><ellipse cx="-1.879" cy="38.332" fill="#7e14ff" rx="4.407" ry="29.108" style="fill:#7e14ff;fill:color(display-p3 .4922 .0767 1);fill-opacity:1" transform="rotate(37.892 -1.88 38.332)"/></g><g filter="url(#o)"><ellipse cx="35.651" cy="29.907" fill="#7e14ff" rx="4.407" ry="29.108" style="fill:#7e14ff;fill:color(display-p3 .4922 .0767 1);fill-opacity:1" transform="rotate(37.892 35.651 29.907)"/></g><g filter="url(#p)"><ellipse cx="38.418" cy="32.4" fill="#47bfff" rx="5.971" ry="15.297" style="fill:#47bfff;fill:color(display-p3 .2799 .748 1);fill-opacity:1" transform="rotate(37.892 38.418 32.4)"/></g></g><defs><filter id="b" width="60.045" height="41.654" x="-19.77" y="16.149" color-interpolation-filters="sRGB" filterUnits="userSpaceOnUse"><feFlood flood-opacity="0" result="BackgroundImageFix"/><feBlend in="SourceGraphic" in2="BackgroundImageFix" result="shape"/><feGaussianBlur result="effect1_foregroundBlur_2002_17158" stdDeviation="7.659"/></filter><filter id="c" width="90.34" height="51.437" x="-54.613" y="-7.533" color-interpolation-filters="sRGB" filterUnits="userSpaceOnUse"><feFlood flood-opacity="0" result="BackgroundImageFix"/><feBlend in="SourceGraphic" in2="BackgroundImageFix" result="shape"/><feGaussianBlur result="effect1_foregroundBlur_2002_17158" stdDeviation="7.659"/></filter><filter id="d" width="79.355" height="29.4" x="-49.64" y="2.03" color-interpolation-filters="sRGB" filterUnits="userSpaceOnUse"><feFlood flood-opacity="0" result="BackgroundImageFix"/><feBlend in="SourceGraphic" in2="BackgroundImageFix" result="shape"/><feGaussianBlur result="effect1_foregroundBlur_2002_17158" stdDeviation="4.596"/></filter><filter id="e" width="79.579" height="29.4" x="-45.045" y="20.029" color-interpolation-filters="sRGB" filterUnits="userSpaceOnUse"><feFlood flood-opacity="0" result="BackgroundImageFix"/><feBlend in="SourceGraphic" in2="BackgroundImageFix" result="shape"/><feGaussianBlur result="effect1_foregroundBlur_2002_17158" stdDeviation="4.596"/></filter><filter id="f" width="79.579" height="29.4" x="-43.513" y="21.178" color-interpolation-filters="sRGB" filterUnits="userSpaceOnUse"><feFlood flood-opacity="0" result="BackgroundImageFix"/><feBlend in="SourceGraphic" in2="BackgroundImageFix" result="shape"/><feGaussianBlur result="effect1_foregroundBlur_2002_17158" stdDeviation="4.596"/></filter><filter id="g" width="74.749" height="58.852" x="15.756" y="-17.901" color-interpolation-filters="sRGB" filterUnits="userSpaceOnUse"><feFlood flood-opacity="0" result="BackgroundImageFix"/><feBlend in="SourceGraphic" in2="BackgroundImageFix" result="shape"/><feGaussianBlur result="effect1_foregroundBlur_2002_17158" stdDeviation="7.659"/></filter><filter id="h" width="61.377" height="25.362" x="23.548" y="2.284" color-interpolation-filters="sRGB" filterUnits="userSpaceOnUse"><feFlood flood-opacity="0" result="BackgroundImageFix"/><feBlend in="SourceGraphic" in2="BackgroundImageFix" result="shape"/><feGaussianBlur result="effect1_foregroundBlur_2002_17158" stdDeviation="4.596"/></filter><filter id="i" width="61.377" height="25.362" x="23.548" y="2.284" color-interpolation-filters="sRGB" filterUnits="userSpaceOnUse"><feFlood flood-opacity="0" result="BackgroundImageFix"/><feBlend in="SourceGraphic" in2="BackgroundImageFix" result="shape"/><feGaussianBlur result="effect1_foregroundBlur_2002_17158" stdDeviation="4.596"/></filter><filter id="j" width="56.045" height="63.649" x="-27.636" y="-22.853" color-interpolation-filters="sRGB" filterUnits="userSpaceOnUse"><feFlood flood-opacity="0" result="BackgroundImageFix"/><feBlend in="SourceGraphic" in2="BackgroundImageFix" result="shape"/><feGaussianBlur result="effect1_foregroundBlur_2002_17158" stdDeviation="4.596"/></filter><filter id="k" width="54.814" height="64.646" x="20.116" y="-38.415" color-interpolation-filters="sRGB" filterUnits="userSpaceOnUse"><feFlood flood-opacity="0" result="BackgroundImageFix"/><feBlend in="SourceGraphic" in2="BackgroundImageFix" result="shape"/><feGaussianBlur result="effect1_foregroundBlur_2002_17158" stdDeviation="4.596"/></filter><filter id="l" width="33.541" height="35.313" x="24.641" y="-11.323" color-interpolation-filters="sRGB" filterUnits="userSpaceOnUse"><feFlood flood-opacity="0" result="BackgroundImageFix"/><feBlend in="SourceGraphic" in2="BackgroundImageFix" result="shape"/><feGaussianBlur result="effect1_foregroundBlur_2002_17158" stdDeviation="4.596"/></filter><filter id="m" width="54.814" height="64.646" x="-29.286" y="6.009" color-interpolation-filters="sRGB" filterUnits="userSpaceOnUse"><feFlood flood-opacity="0" result="BackgroundImageFix"/><feBlend in="SourceGraphic" in2="BackgroundImageFix" result="shape"/><feGaussianBlur result="effect1_foregroundBlur_2002_17158" stdDeviation="4.596"/></filter><filter id="n" width="54.814" height="64.646" x="-29.286" y="6.009" color-interpolation-filters="sRGB" filterUnits="userSpaceOnUse"><feFlood flood-opacity="0" result="BackgroundImageFix"/><feBlend in="SourceGraphic" in2="BackgroundImageFix" result="shape"/><feGaussianBlur result="effect1_foregroundBlur_2002_17158" stdDeviation="4.596"/></filter><filter id="o" width="54.814" height="64.646" x="8.244" y="-2.416" color-interpolation-filters="sRGB" filterUnits="userSpaceOnUse"><feFlood flood-opacity="0" result="BackgroundImageFix"/><feBlend in="SourceGraphic" in2="BackgroundImageFix" result="shape"/><feGaussianBlur result="effect1_foregroundBlur_2002_17158" stdDeviation="4.596"/></filter><filter id="p" width="39.409" height="43.623" x="18.713" y="10.588" color-interpolation-filters="sRGB" filterUnits="userSpaceOnUse"><feFlood flood-opacity="0" result="BackgroundImageFix"/><feBlend in="SourceGraphic" in2="BackgroundImageFix" result="shape"/><feGaussianBlur result="effect1_foregroundBlur_2002_17158" stdDeviation="4.596"/></filter></defs></svg> Center V of M (meets in middle) -->
  <path d="M68 68 L80 80 L100 100 L120 80 L132 68 L100 50 Z" fill="url(#blueGrad)"/>
  <!-- White gap lines in M to show letter form -->
  <path d="M76 78 L100 98 L124 78" fill="none" stroke="white" stroke-width="5" stroke-linecap="round" stroke-linejoin="round"/>

  <!-- ═══ LEAVES ═══ -->
  <!-- Center top leaves -->
  <ellipse cx="100" cy="30" rx="7" ry="13" transform="rotate(0 100 30)" fill="url(#leafGrad)"/>
  <ellipse cx="88" cy="34" rx="6.5" ry="12" transform="rotate(-18 88 34)" fill="url(#leafGrad)"/>
  <ellipse cx="112" cy="34" rx="6.5" ry="12" transform="rotate(18 112 34)" fill="url(#leafGrad)"/>

  <!-- Upper-left leaves -->
  <ellipse cx="72" cy="40" rx="6" ry="12" transform="rotate(-35 72 40)" fill="url(#leafGrad)"/>
  <ellipse cx="57" cy="50" rx="6" ry="12" transform="rotate(-50 57 50)" fill="url(#leafGrad)"/>
  <ellipse cx="46" cy="64" rx="6" ry="11" transform="rotate(-65 46 64)" fill="url(#leafGrad)"/>
  <ellipse cx="40" cy="80" rx="5.5" ry="11" transform="rotate(-75 40 80)" fill="url(#leafGrad)"/>

  <!-- Upper-right leaves -->
  <ellipse cx="128" cy="40" rx="6" ry="12" transform="rotate(35 128 40)" fill="url(#leafGrad)"/>
  <ellipse cx="143" cy="50" rx="6" ry="12" transform="rotate(50 143 50)" fill="url(#leafGrad)"/>
  <ellipse cx="154" cy="64" rx="6" ry="11" transform="rotate(65 154 64)" fill="url(#leafGrad)"/>
  <ellipse cx="160" cy="80" rx="5.5" ry="11" transform="rotate(75 160 80)" fill="url(#leafGrad)"/>

  <!-- Mid-left leaves -->
  <ellipse cx="52" cy="95" rx="6" ry="12" transform="rotate(-80 52 95)" fill="url(#leafGrad)"/>
  <ellipse cx="46" cy="112" rx="6" ry="11" transform="rotate(-85 46 112)" fill="url(#leafGrad)"/>

  <!-- Mid-right leaves -->
  <ellipse cx="148" cy="95" rx="6" ry="12" transform="rotate(80 148 95)" fill="url(#leafGrad)"/>
  <ellipse cx="154" cy="112" rx="6" ry="11" transform="rotate(85 154 112)" fill="url(#leafGrad)"/>

  <!-- Secondary inner leaves -->
  <ellipse cx="80" cy="50" rx="5.5" ry="10" transform="rotate(-25 80 50)" fill="url(#leafGrad)"/>
  <ellipse cx="120" cy="50" rx="5.5" ry="10" transform="rotate(25 120 50)" fill="url(#leafGrad)"/>
  <ellipse cx="66" cy="60" rx="5" ry="10" transform="rotate(-45 66 60)" fill="url(#leafGrad)"/>
  <ellipse cx="134" cy="60" rx="5" ry="10" transform="rotate(45 134 60)" fill="url(#leafGrad)"/>
</svg>
